<svg width="270" height="64" viewBox="0 0 270 64" fill="none" xmlns="http://www.w3.org/2000/svg">
<path fill-rule="evenodd" clip-rule="evenodd" d="M31.9996 0C32.6231 0 33.2419 0.0199383 33.8564 0.0549418C22.3997 12.5669 11.6498 26.6625 2.16915 43.6008C0.769013 40.0041 0 36.092 0 32C0 14.3271 14.327 0 31.9996 0ZM42.8352 1.88298C46.3629 3.15202 49.6031 5.02332 52.4323 7.3728C42.7609 19.4698 33.2852 33.6233 23.7018 46.6415L23.4876 46.4545C29.3427 22.1192 38.5106 14.6612 42.8352 1.88298ZM55.6566 10.4518C56.121 10.9616 56.5684 11.4873 56.9995 12.0261C43.8212 34.5746 34.2882 53.9148 35.488 63.8099C34.342 63.934 33.1787 64 31.9996 64C20.9945 64 11.2872 58.4434 5.52885 49.9831C16.0501 31.354 24.7768 15.2755 33.2147 7.8497L33.4281 8.05356C26.5583 19.7929 17.4298 36.4556 17.0862 49.3304C16.8808 57.1535 24.1605 53.3487 27.408 49.2461C37.007 36.2643 44.2444 23.9375 55.6566 10.4518ZM60.0794 16.6428C62.5784 21.2013 64 26.4347 64 32C64 46.1111 54.8653 58.0891 42.1869 62.3434C42.2032 60.5202 42.0927 58.6576 42.6894 56.4284C46.0587 43.8397 52.0542 30.5226 60.0794 16.6428Z" fill="#EB2629"/>
<path d="M98.0724 17.0786C98.1482 16.881 98.3251 16.5102 98.5021 16.5102C98.6031 16.5102 98.8054 16.5594 98.8054 17.0292L98.7042 30.5012H102.041V15.2741C102.041 13.6921 100.827 13 99.1845 13C97.8953 13 96.8338 13.2966 96.0755 15.2246L91.5006 26.7687C91.3488 27.1395 91.172 27.4114 91.0202 27.4114C90.8687 27.4114 90.6917 27.1395 90.5401 26.7687L85.9651 15.2246C85.2068 13.2966 84.1452 13 82.8562 13C82.3506 13 80 13.0246 80 15.2741V30.5012H83.3365L83.2606 17.0292C83.2606 16.955 83.2606 16.5102 83.5386 16.5102C83.6903 16.5102 83.8925 16.881 83.9683 17.0786L88.4927 28.6225C89.1247 30.2541 89.6554 30.6989 91.0202 30.6989C92.4863 30.6989 92.9413 30.1799 93.5479 28.6225L98.0724 17.0786ZM102.799 30.5012H106.312L108.107 26.1258H116.625L118.445 30.5012H121.958L115.285 14.9527C114.653 13.4943 113.895 13 112.379 13C110.786 13 110.104 13.4943 109.472 14.9527L102.799 30.5012ZM111.873 16.7573C111.974 16.5101 112.151 16.0404 112.379 16.0404C112.606 16.0404 112.783 16.5101 112.884 16.7573L115.766 23.8023H108.966L111.873 16.7573ZM122.944 27.9057H121.453V30.5012H142.002V27.9057H140.511L134.571 14.8291C134.015 13.5932 133.307 13 131.74 13C129.945 13 129.364 13.8403 128.909 14.8291L122.944 27.9057ZM131.31 16.6831C131.361 16.5349 131.538 16.1393 131.74 16.1393C131.942 16.1393 132.069 16.5349 132.145 16.6831L137.099 27.9057H126.356L131.31 16.6831ZM142.002 30.5012H145.515L147.31 26.1258H155.828L157.648 30.5012H161.161L154.489 14.9527C153.856 13.4943 153.098 13 151.582 13C149.989 13 149.307 13.4943 148.675 14.9527L142.002 30.5012ZM151.076 16.7573C151.177 16.5101 151.354 16.0404 151.582 16.0404C151.809 16.0404 151.986 16.5101 152.087 16.7573L154.969 23.8023H148.169L151.076 16.7573ZM162.147 27.9057H160.656V30.5012H181.205V27.9057H179.714L173.774 14.8291C173.218 13.5932 172.51 13 170.943 13C169.149 13 168.567 13.8403 168.112 14.8291L162.147 27.9057ZM170.513 16.6831C170.564 16.5349 170.741 16.1393 170.943 16.1393C171.145 16.1393 171.272 16.5349 171.348 16.6831L176.302 27.9057H165.559L170.513 16.6831ZM196.952 13.1977V14.6067H194.425C191.745 14.6067 190.153 14.928 189.041 16.4854C188.005 17.9439 187.853 19.7977 187.853 21.627C187.853 23.4068 187.979 25.335 188.864 26.7687C189.925 28.4496 191.644 28.8204 193.818 28.8204H196.952V30.5012H200.289V28.8204H203.423C205.597 28.8204 207.315 28.4496 208.377 26.7687C209.262 25.335 209.388 23.4068 209.388 21.627C209.388 19.7977 209.236 17.9439 208.2 16.4854C207.088 14.928 205.495 14.6067 202.791 14.6067H200.289V13.1977H196.952ZM196.952 26.2248H195.461C194.147 26.2248 192.377 26.1753 191.67 24.6181C191.518 24.272 191.29 23.5552 191.29 21.627C191.29 19.6989 191.568 18.9821 191.745 18.636C192.403 17.3752 193.793 17.2023 194.981 17.2023H196.952V26.2248ZM200.289 26.2248V17.2023H202.26C203.524 17.2023 204.813 17.3752 205.47 18.636C205.799 19.254 205.95 20.0943 205.95 21.627C205.95 23.3573 205.799 24.1236 205.571 24.6181C204.864 26.1753 203.094 26.2248 201.78 26.2248H200.289ZM209.641 30.5012H213.154L214.949 26.1258H223.467L225.287 30.5012H228.8L222.127 14.9527C221.495 13.4943 220.737 13 219.22 13C217.628 13 216.946 13.4943 216.314 14.9527L209.641 30.5012ZM218.715 16.7573C218.816 16.5101 218.993 16.0404 219.22 16.0404C219.448 16.0404 219.625 16.5101 219.726 16.7573L222.607 23.8023H215.808L218.715 16.7573ZM232.895 30.5012V24.3708H241.185C242.222 24.3708 243.233 24.0494 243.89 23.5304C245.28 22.418 245.432 20.1932 245.432 18.7842C245.432 17.3258 245.305 15.373 244.092 14.2359C243.005 13.1977 241.514 13.1977 240.579 13.1977H232.162C231.555 13.1977 230.746 13.2966 230.165 13.8651C229.558 14.4583 229.558 15.1504 229.558 15.7933V30.5012H232.895ZM232.895 21.7754V16.8315C232.895 16.5349 232.895 16.2381 233.122 16.0157C233.375 15.7685 233.678 15.7933 233.906 15.7933H239.29C239.846 15.7933 240.781 15.818 241.362 16.3865C241.918 16.955 241.994 17.9932 241.994 18.7595C241.994 19.4269 241.944 20.5393 241.413 21.1327C240.831 21.7754 239.972 21.7754 239.239 21.7754H232.895ZM266.032 17.0786C266.108 16.881 266.284 16.5102 266.461 16.5102C266.562 16.5102 266.765 16.5594 266.765 17.0292L266.664 30.5012H270V15.2741C270 13.6921 268.787 13 267.144 13C265.855 13 264.793 13.2966 264.035 15.2246L259.46 26.7687C259.308 27.1395 259.131 27.4114 258.98 27.4114C258.828 27.4114 258.651 27.1395 258.499 26.7687L253.924 15.2246C253.166 13.2966 252.104 13 250.815 13C250.31 13 247.959 13.0246 247.959 15.2741V30.5012H251.296L251.22 17.0292C251.22 16.955 251.22 16.5102 251.498 16.5102C251.65 16.5102 251.852 16.881 251.928 17.0786L256.452 28.6225C257.084 30.2541 257.615 30.6989 258.98 30.6989C260.446 30.6989 260.901 30.1799 261.507 28.6225L266.032 17.0786Z" fill="#00824A"/>
<path d="M80.8054 47.5655H80V48.3217H92.7592V47.5655H91.9536L87.5395 38.2699C87.2495 37.6553 86.9435 37.1669 86.3795 37.1669C85.8319 37.1669 85.4935 37.6711 85.2197 38.2699L80.8054 47.5655ZM86.0413 38.4588C86.0897 38.3485 86.2345 38.0807 86.3795 38.0807C86.5245 38.0807 86.6695 38.3485 86.7179 38.4588L90.987 47.5655H81.772L86.0413 38.4588ZM92.9202 44.0993C92.9202 45.9111 93.4358 46.9353 93.9836 47.4708C94.918 48.369 96.384 48.4161 97.1411 48.4161C97.8983 48.4161 99.3643 48.369 100.299 47.4708C100.846 46.9353 101.362 45.9111 101.362 44.0993C101.362 43.1696 101.233 41.6887 100.299 40.7907C99.4609 39.9872 98.2205 39.8769 97.1411 39.8769C96.0618 39.8769 94.8212 39.9872 93.9836 40.7907C93.0492 41.6887 92.9202 43.1696 92.9202 44.0993ZM93.8224 44.1781C93.8224 43.4532 93.8224 42.1298 94.499 41.3893C95.1596 40.6804 96.3356 40.6174 97.1411 40.6174C97.9467 40.6174 99.1227 40.6804 99.7831 41.3893C100.46 42.1298 100.46 43.4532 100.46 44.1781C100.46 44.8555 100.476 46.1159 99.7671 46.8721C99.0905 47.597 98.0111 47.6756 97.1411 47.6756C96.2712 47.6756 95.1918 47.597 94.5152 46.8721C93.8064 46.1159 93.8224 44.8555 93.8224 44.1781ZM102.651 47.329C102.651 47.5811 102.667 47.8491 102.86 48.0539C103.005 48.2114 103.279 48.3217 103.569 48.3217H107.532C107.919 48.3217 108.402 48.2428 108.821 47.8018C109.353 47.2345 109.385 46.4783 109.385 45.7851C109.385 45.3597 109.385 44.9028 109.095 44.5247C108.918 44.2882 108.628 44.0678 108.209 43.989V43.9575C108.66 43.8945 108.918 43.658 109.063 43.4691C109.369 43.091 109.385 42.634 109.385 42.2086C109.385 41.7044 109.32 41.027 108.95 40.5858C108.483 40.0187 107.725 39.9714 107.371 39.9714H103.65C103.392 39.9714 103.102 40.0817 102.925 40.255C102.764 40.4125 102.651 40.6804 102.651 40.964V47.329ZM103.489 43.595V41.0112C103.489 40.9482 103.521 40.8379 103.569 40.7907C103.617 40.7434 103.762 40.7119 103.827 40.7119H107.226C107.468 40.7119 107.838 40.7276 108.128 40.9955C108.483 41.3106 108.483 41.799 108.483 42.1142C108.483 42.4923 108.467 42.9177 108.16 43.2484C107.887 43.5635 107.58 43.595 107.226 43.595H103.489ZM103.489 44.3356H107.226C107.564 44.3356 107.903 44.3985 108.177 44.7137C108.483 45.0761 108.483 45.5645 108.483 45.927C108.483 46.3522 108.483 46.8564 108.177 47.2189C107.887 47.5655 107.516 47.5811 107.049 47.5811H104.004C103.843 47.5811 103.698 47.5811 103.585 47.4552C103.505 47.3607 103.489 47.203 103.489 47.0612V44.3356ZM117.488 48.3217V47.5811H113.299C112.172 47.5811 111.592 46.8091 111.398 46.1317C111.27 45.6905 111.237 44.9185 111.253 44.43H116.457C116.699 44.43 117.101 44.3986 117.359 44.1781C117.698 43.8945 117.714 43.3272 117.714 43.091C117.714 41.3421 116.683 40.6489 116.344 40.4441C115.652 40.0502 114.765 39.9714 114.169 39.9714C113.315 39.9714 112.268 40.0817 111.495 40.7119C110.416 41.5942 110.351 43.0122 110.351 44.1781C110.351 45.4069 110.384 46.4625 111.044 47.2975C111.705 48.1484 112.607 48.3217 113.299 48.3217H117.488ZM111.253 43.6897C111.27 42.8703 111.318 42.2716 111.656 41.7202C112.252 40.7434 113.171 40.7119 114.024 40.7119C114.782 40.7119 115.619 40.7276 116.232 41.4366C116.522 41.7676 116.812 42.3189 116.812 43.1381C116.812 43.2484 116.828 43.6897 116.457 43.6897H111.253ZM119.84 48.3217H122.257C123.642 48.3217 124.609 48.0695 125.285 47.0771C125.897 46.1632 125.962 45.0761 125.962 44.0205C125.962 43.028 125.93 41.8305 125.06 40.9325C124.222 40.0502 123.078 39.9714 122.514 39.9714H120.356C120.114 39.9714 119.727 39.9872 119.405 40.2235C119.276 40.318 119.002 40.5701 119.002 41.0112V51H119.84V48.3217ZM119.84 47.5811V41.1215C119.84 41.0112 119.856 40.9167 119.969 40.8222C120.034 40.7749 120.146 40.7119 120.227 40.7119H122.692C123.465 40.7119 124.351 41.0427 124.754 41.925C124.947 42.3504 125.06 42.9807 125.06 44.1308C125.06 45.2179 124.963 46.0529 124.576 46.6358C124.142 47.2819 123.368 47.5811 122.595 47.5811H119.84ZM134.388 48.3217V40.8379C134.388 40.6016 134.371 39.8769 133.646 39.8769C133.26 39.8769 132.97 40.0502 132.76 40.381L128.362 47.2345C128.298 47.3448 128.25 47.4393 128.185 47.4393C128.089 47.4393 128.089 47.3134 128.089 47.2345V39.9714H127.251V47.5496C127.251 48.101 127.541 48.4161 128.024 48.4161C128.443 48.4161 128.669 48.2272 128.942 47.8174L133.292 41.0585C133.405 40.8852 133.453 40.8694 133.469 40.8694C133.566 40.8694 133.55 40.964 133.55 41.0585V48.3217H134.388ZM142.813 48.3217V47.5811H138.624C137.497 47.5811 136.917 46.8091 136.723 46.1317C136.595 45.6905 136.562 44.9185 136.578 44.43H141.782C142.024 44.43 142.426 44.3986 142.684 44.1781C143.023 43.8945 143.039 43.3272 143.039 43.091C143.039 41.3421 142.008 40.6489 141.669 40.4441C140.977 40.0502 140.09 39.9714 139.494 39.9714C138.64 39.9714 137.593 40.0817 136.82 40.7119C135.741 41.5942 135.676 43.0122 135.676 44.1781C135.676 45.4069 135.709 46.4625 136.369 47.2975C137.03 48.1484 137.932 48.3217 138.624 48.3217H142.813ZM136.578 43.6897C136.595 42.8703 136.643 42.2716 136.981 41.7202C137.577 40.7434 138.496 40.7119 139.349 40.7119C140.106 40.7119 140.944 40.7276 141.557 41.4366C141.847 41.7676 142.137 42.3189 142.137 43.1381C142.137 43.2484 142.153 43.6897 141.782 43.6897H136.578ZM155.218 48.3217V40.8379C155.218 40.6016 155.202 39.8769 154.477 39.8769C154.09 39.8769 153.8 40.0502 153.591 40.381L149.193 47.2345C149.128 47.3448 149.08 47.4393 149.015 47.4393C148.919 47.4393 148.919 47.3134 148.919 47.2345V39.9714H148.081V47.5496C148.081 48.101 148.371 48.4161 148.854 48.4161C149.273 48.4161 149.499 48.2272 149.773 47.8174L154.122 41.0585C154.235 40.8852 154.284 40.8694 154.3 40.8694C154.396 40.8694 154.38 40.964 154.38 41.0585V48.3217H155.218ZM160.421 48.3217H164.819C165.125 48.3217 165.77 48.2902 166.269 47.8332C166.865 47.2818 166.898 46.3995 166.898 45.927C166.898 45.4857 166.833 44.9343 166.511 44.5089C166.285 44.2096 166.011 44.0835 165.802 44.0363V43.989C166.173 43.8945 166.398 43.6739 166.527 43.5006C166.817 43.0751 166.849 42.4764 166.849 42.0983C166.849 41.5942 166.785 40.9482 166.318 40.4913C166.173 40.3495 165.705 39.9714 164.803 39.9714H160.582V40.7119H164.723C165.206 40.7119 165.48 40.8852 165.625 41.0427C165.915 41.3578 165.947 41.8305 165.947 42.1613C165.947 42.3819 165.931 42.9648 165.625 43.2799C165.448 43.4691 165.125 43.6265 164.707 43.6265H160.663V44.3671H164.594C164.9 44.3671 165.254 44.3986 165.577 44.6822C165.979 45.0446 165.995 45.533 165.995 45.9426C165.995 46.1632 165.979 46.8721 165.722 47.2189C165.496 47.534 165.125 47.5811 164.884 47.5811H160.421V48.3217ZM168.67 39.9714V40.7119H172.81C173.213 40.7119 173.535 40.8852 173.712 41.09C173.922 41.3421 174.034 41.8147 174.034 42.0826V43.3273H170.329C169.846 43.3273 169.201 43.3902 168.734 43.7683C168.122 44.2726 168.025 45.0603 168.025 45.7378C168.025 46.2421 168.074 47.3763 168.783 47.9436C169.25 48.3058 169.846 48.3217 170.329 48.3217H173.616C173.906 48.3217 174.324 48.3217 174.582 48.0854C174.856 47.8333 174.872 47.4393 174.872 47.2189V42.2245C174.872 41.7202 174.808 41.027 174.357 40.5543C174.018 40.192 173.438 39.9714 172.858 39.9714H168.67ZM174.034 44.0678V47.203C174.034 47.3133 174.034 47.3922 173.922 47.4867C173.809 47.5811 173.648 47.5811 173.551 47.5811H170.104C169.749 47.5811 169.443 47.4237 169.266 47.2189C168.976 46.8721 168.928 46.2735 168.928 45.7693C168.928 45.1864 168.992 44.7452 169.202 44.4774C169.33 44.3041 169.636 44.0678 170.136 44.0678H174.034ZM183.201 38.0336V37.293H179.447C178.497 37.293 177.45 37.6868 176.918 38.5691C176.515 39.2308 176.483 40.0029 176.483 40.5386V44.9184C176.483 45.5802 176.515 46.305 176.934 47.0139C177.724 48.3375 179.157 48.4161 180.076 48.4161C181.026 48.4161 182.396 48.2902 183.153 47.0927C183.652 46.305 183.749 45.1391 183.749 44.0678C183.749 43.1696 183.7 42.0827 183.185 41.2948C182.508 40.2392 181.252 39.9714 180.317 39.9714H177.321C177.337 39.4671 177.546 38.9316 177.901 38.585C178.271 38.2225 178.883 38.0336 179.496 38.0336H183.201ZM177.321 40.7119H180.366C181.3 40.7119 181.864 40.9955 182.186 41.3263C182.847 41.988 182.847 43.0436 182.847 43.9575C182.847 44.9343 182.798 46.2736 182.218 46.9509C181.638 47.6285 180.623 47.6756 180.043 47.6756C179.254 47.6756 178.287 47.534 177.756 46.762C177.45 46.3365 177.321 45.6905 177.321 45.0918V40.7119ZM184.715 44.0993C184.715 45.9111 185.231 46.9353 185.779 47.4708C186.713 48.369 188.179 48.4161 188.936 48.4161C189.693 48.4161 191.159 48.369 192.094 47.4708C192.642 46.9353 193.157 45.9111 193.157 44.0993C193.157 43.1696 193.028 41.6887 192.094 40.7907C191.256 39.9872 190.016 39.8769 188.936 39.8769C187.857 39.8769 186.616 39.9872 185.779 40.7907C184.844 41.6887 184.715 43.1696 184.715 44.0993ZM185.618 44.1781C185.618 43.4532 185.618 42.1298 186.294 41.3893C186.955 40.6804 188.131 40.6174 188.936 40.6174C189.742 40.6174 190.918 40.6804 191.578 41.3893C192.255 42.1298 192.255 43.4532 192.255 44.1781C192.255 44.8555 192.271 46.1159 191.562 46.8721C190.886 47.597 189.806 47.6756 188.936 47.6756C188.066 47.6756 186.987 47.597 186.31 46.8721C185.602 46.1159 185.618 44.8555 185.618 44.1781ZM197.539 48.3217V40.7119H200.761V39.9714H193.479V40.7119H196.701V48.3217H197.539ZM201.728 39.9714V40.7119H205.868C206.271 40.7119 206.593 40.8852 206.77 41.09C206.979 41.3421 207.092 41.8147 207.092 42.0826V43.3273H203.387C202.904 43.3273 202.259 43.3902 201.792 43.7683C201.18 44.2726 201.083 45.0603 201.083 45.7378C201.083 46.2421 201.132 47.3763 201.84 47.9436C202.308 48.3058 202.904 48.3217 203.387 48.3217H206.673C206.963 48.3217 207.382 48.3217 207.64 48.0854C207.914 47.8333 207.93 47.4393 207.93 47.2189V42.2245C207.93 41.7202 207.866 41.027 207.414 40.5543C207.076 40.192 206.496 39.9714 205.916 39.9714H201.728ZM207.092 44.0678V47.203C207.092 47.3133 207.092 47.3922 206.979 47.4867C206.867 47.5811 206.706 47.5811 206.609 47.5811H203.161C202.807 47.5811 202.501 47.4237 202.324 47.2189C202.034 46.8721 201.985 46.2735 201.985 45.7693C201.985 45.1864 202.05 44.7452 202.259 44.4774C202.388 44.3041 202.694 44.0678 203.194 44.0678H207.092Z" fill="#00824A"/>
</svg>
