<svg width="42" height="42" viewBox="0 0 42 42" fill="none" xmlns="http://www.w3.org/2000/svg">
	<path d="M31 21H25L23 24H19L17 21H11" stroke="#1A1A1A" stroke-width="1.4" stroke-linecap="round" stroke-linejoin="round" />
	<path d="M14.45 14.11L11 21V27C11 27.5304 11.2107 28.0391 11.5858 28.4142C11.9609 28.7893 12.4696 29 13 29H29C29.5304 29 30.0391 28.7893 30.4142 28.4142C30.7893 28.0391 31 27.5304 31 27V21L27.55 14.11C27.3844 13.7768 27.1292 13.4964 26.813 13.3003C26.4967 13.1042 26.1321 13.0002 25.76 13H16.24C15.8679 13.0002 15.5033 13.1042 15.187 13.3003C14.8708 13.4964 14.6156 13.7768 14.45 14.11V14.11Z" stroke="#1A1A1A" stroke-width="1.4" stroke-linecap="round" stroke-linejoin="round" />
</svg>
